<svg xmlns="http://www.w3.org/2000/svg" width="200" height="200" viewBox="200 200">
  <!-- Scale + translate to center with uniform margin -->
  <g transform="translate(-600,-470) scale(7)">
    <path fill="rgb(36.470589%,41.568628%,98.823529%)" d="M91.3 66.914q0.305 -0.005 0.614 -0.004 1.006 -0.005 2.012 -0.004h1.3q1.468 -0.006 2.938 0c1.25 0 2.504 -0.004 3.754 -0.008q1.447 -0.004 2.894 -0.003 0.69 0.001 1.387 -0.004 0.966 -0.001 1.937 0.004c0.188 -0.004 0.38 -0.004 0.575 -0.008 1.402 0.015 2.66 0.293 3.714 1.27 0.13 0.19 0.13 0.19 0.258 0.386l0.266 0.383c0.445 0.777 0.672 1.441 0.676 2.336 0 0.187 0.004 0.375 0.004 0.566v0.61q0 0.32 0.003 0.652v2.125q-0.001 0.742 0.004 1.484v3.102c-0.004 1.195 0 2.386 0.004 3.582q0.005 1.723 0.004 3.453 -0.001 0.73 0.004 1.46c0.004 0.688 0 1.372 0 2.056q-0.001 0.296 0.004 0.605c-0.012 1.672 -0.285 3.207 -1.48 4.453 -1.618 1.336 -3.645 1.23 -5.63 1.074 -2.453 -0.414 -3.831 -2.832 -5.183 -4.687 -0.41 -0.563 -0.836 -1.11 -1.262 -1.66q-1.114 -1.447 -2.21 -2.907 -0.142 -0.187 -0.29 -0.386a16 16 0 0 1 -0.28 -0.375c-0.083 -0.106 -0.161 -0.215 -0.243 -0.324 -0.434 -0.586 -0.852 -1.18 -1.274 -1.77 0 0.164 0 0.164 -0.003 0.332q-0.012 1.71 -0.036 3.422 -0.01 0.637 -0.015 1.273 -0.006 0.92 -0.024 1.84v0.57c-0.027 1.387 -0.324 2.442 -1.238 3.504q-0.164 0.13 -0.332 0.266c-0.164 0.133 -0.164 0.133 -0.328 0.273 -1.309 0.856 -2.77 0.758 -4.274 0.63 -1.378 -0.356 -2.265 -1.087 -3.078 -2.247 -0.84 -2.351 -0.472 -5.336 -0.476 -7.8q0.001 -0.328 -0.004 -0.66c0 -1.15 -0.004 -2.294 -0.004 -3.442q0 -1.77 -0.012 -3.54 -0.005 -1.368 -0.004 -2.737 -0.002 -0.655 -0.004 -1.305 -0.005 -0.915 -0.004 -1.828 -0.002 -0.262 -0.003 -0.535c0.007 -1.559 0.214 -3.04 1.308 -4.215 1.2 -1.14 2.348 -1.27 3.934 -1.262m0 0"/>
    <path fill="rgb(25.882354%,57.254905%,99.607843%)" d="M91.3 66.914q0.305 -0.005 0.614 -0.004 1.006 -0.005 2.012 -0.004h1.398q1.468 -0.006 2.938 0c1.25 0 2.504 -0.004 3.754 -0.008q1.447 -0.004 2.894 -0.003 0.69 0.001 1.387 -0.004 0.966 -0.001 1.937 0.004c0.188 -0.004 0.38 -0.004 0.575 -0.008 1.402 0.015 2.66 0.293 3.714 1.27 0.13 0.19 0.13 0.19 0.258 0.386l0.266 0.383c0.445 0.785 0.676 1.445 0.672 2.347v0.575c0 0.304 0 0.304 -0.004 0.62v0.657q0.001 1.08 -0.004 2.152c0 0.5 -0.004 0.996 -0.004 1.496q-0.001 1.764 -0.008 3.528c-0.004 1.336 -0.004 2.676 -0.008 4.015q-0.006 4.131 -0.02 8.262c-0.128 -0.195 -0.257 -0.387 -0.39 -0.586q-0.193 0.096 -0.39 0.195c-0.926 -1.007 -1.75 -2.066 -2.547 -3.18 -0.836 -1.16 -1.73 -2.269 -2.64 -3.374 -2.04 -2.485 -2.04 -2.485 -2.04 -3.016h-0.39c-0.278 -0.308 -0.278 -0.308 -0.598 -0.746a86 86 0 0 0 -2.114 -2.656q-0.41 -0.496 -0.796 -1.004c-0.422 -0.504 -0.86 -0.89 -1.375 -1.293 -0.246 -0.2 -0.246 -0.2 -0.5 -0.402 -0.86 -0.621 -1.403 -0.782 -2.477 -0.778h-0.746c-0.266 0 -0.535 0.004 -0.805 0.004q-0.409 0.002 -0.824 0.004 -1.079 0.001 -2.164 0.008 -1.106 0.007 -2.21 0.008 -2.17 0.006 -4.337 0.02c-0.293 -0.876 -0.238 -1.735 -0.246 -2.65l-0.012 -0.562c-0.007 -1.629 0.153 -3.16 1.297 -4.394 1.2 -1.14 2.348 -1.27 3.934 -1.262m0 0"/>
  </g>
</svg>
